<svg width="78" height="66" viewBox="0 0 78 66" fill="none" xmlns="http://www.w3.org/2000/svg">
<path d="M63.8211 39.7344L76.6618 44.503L59.6214 65.4656L19.737 65.8984C-18.6899 45.1403 9.81985 5.58352 33.9747 4.00974L32.4224 17.1035L64.054 0.46875L57.1551 22.3993L77.1016 23.4537L63.8211 39.7344Z" fill="black"/>
<path d="M17.131 32.3233V38.8623H14.9586V23.6553H18.0434C18.9124 23.6553 19.5569 23.8436 19.9769 24.2202C20.3969 24.5967 20.6069 25.1108 20.6069 25.7626L20.6286 30.8895C20.6286 31.2661 20.5635 31.5774 20.4331 31.8236C20.3028 32.0554 20.1435 32.2364 19.9552 32.3668C19.7669 32.4971 19.5641 32.584 19.3469 32.6274C19.1297 32.6709 18.9341 32.6926 18.7604 32.6926C18.5721 32.6926 18.3766 32.6781 18.1738 32.6492C17.9855 32.6057 17.8117 32.555 17.6524 32.4971C17.4786 32.4536 17.3048 32.3957 17.131 32.3233ZM17.131 25.6757V30.6723C17.4352 30.7736 17.6741 30.8171 17.8479 30.8026C18.0362 30.7736 18.1738 30.7157 18.2607 30.6288C18.3621 30.5274 18.4272 30.4188 18.4562 30.3029C18.4852 30.1726 18.4997 30.0567 18.4997 29.9554V26.7184C18.4997 26.226 18.3983 25.8857 18.1955 25.6974C18.0072 25.5091 17.6524 25.5019 17.131 25.6757Z" fill="white"/>
<path d="M24.1108 38.8623H21.9384V23.6553H25.0232C25.8922 23.6553 26.5367 23.8436 26.9567 24.2202C27.3767 24.5967 27.5867 25.1108 27.5867 25.7626L27.6084 32.6274C27.5939 33.0619 27.507 33.4095 27.3477 33.6702C27.1884 33.9164 26.9856 34.0975 26.7394 34.2133C26.5801 34.3002 26.3991 34.3654 26.1963 34.4088C26.0081 34.4378 25.8343 34.445 25.6749 34.4306C25.3708 34.4016 25.1318 34.3364 24.958 34.235C24.7987 34.1337 24.6756 34.0323 24.5887 33.9309C24.5018 33.815 24.4367 33.7137 24.3932 33.6268C24.3498 33.5254 24.2991 33.4747 24.2411 33.4747H24.1108V38.8623ZM24.1108 25.6757V33.0619C24.4149 33.1633 24.6539 33.2068 24.8277 33.1923C25.016 33.1633 25.1536 33.1054 25.2405 33.0185C25.3418 32.9171 25.407 32.8085 25.436 32.6926C25.4649 32.5623 25.4794 32.4464 25.4794 32.345V26.7184C25.4794 26.226 25.378 25.8857 25.1753 25.6974C24.987 25.5091 24.6322 25.5019 24.1108 25.6757ZM25.9791 33.1488L27.5867 38.8623H25.197L24.2629 33.4747L25.9791 33.1488Z" fill="white"/>
<path d="M34.5882 35.9513C34.5882 36.603 34.5158 37.1316 34.3709 37.5371C34.2406 37.9282 34.0523 38.2323 33.8061 38.4495C33.5599 38.6668 33.263 38.8116 32.9154 38.884C32.5823 38.9564 32.2057 38.9927 31.7857 38.9927C31.3513 38.9927 30.953 38.9564 30.5909 38.884C30.2433 38.8116 29.9392 38.6668 29.6785 38.4495C29.4323 38.2323 29.244 37.9282 29.1137 37.5371C28.9833 37.1316 28.9181 36.603 28.9181 35.9513V26.2622C28.9181 25.3064 29.1716 24.5967 29.6785 24.1333C30.1854 23.6553 30.8806 23.4164 31.764 23.4164C32.6475 23.4164 33.3354 23.6553 33.8278 24.1333C34.3202 24.5967 34.5664 25.3064 34.5664 26.2622L34.5882 35.9513ZM31.764 25.3715C31.4454 25.3715 31.2426 25.5164 31.1557 25.806C31.0688 26.0957 31.0254 26.4215 31.0254 26.7836V35.4516C31.0254 35.9151 31.0616 36.2988 31.134 36.603C31.2209 36.9071 31.4309 37.0592 31.764 37.0592C32.0971 37.0592 32.2999 36.9071 32.3723 36.603C32.4447 36.2988 32.4809 35.9151 32.4809 35.4516V26.7836C32.4809 26.5953 32.4737 26.4215 32.4592 26.2622C32.4447 26.0884 32.4085 25.9364 32.3506 25.806C32.3071 25.6757 32.2347 25.5743 32.1333 25.5019C32.0464 25.415 31.9233 25.3715 31.764 25.3715Z" fill="white"/>
<path d="M20.6069 47.8895H21.2369L21.6931 40.6553H24.3L22.9749 48.4978L24.3 55.884H21.6931L21.0197 48.9974H20.6069V47.8895ZM18.4345 40.677H20.6069V55.884H18.4345V40.677ZM18.0217 48.9974L17.3483 55.884H14.7414L16.0665 48.4978L14.7414 40.6553H17.3483L17.8045 47.8895H18.4345V48.9974H18.0217ZM18.4345 55.884V40.677H20.6069V55.884H18.4345Z" fill="white"/>
<path d="M30.6133 55.8623H28.4409L28.354 53.8637H27.2026L27.1157 55.8623H24.9433L26.0078 40.6553H29.6574L30.6133 55.8623ZM28.2671 51.6478L27.8978 43.1102H27.724L27.3112 51.6478H28.2671Z" fill="white"/>
<path d="M33.7637 49.3233V55.8623H31.5912V40.6553H34.6761C35.5451 40.6553 36.1895 40.8436 36.6095 41.2202C37.0295 41.5967 37.2396 42.1108 37.2396 42.7626L37.2613 47.8895C37.2613 48.2661 37.1961 48.5774 37.0658 48.8236C36.9354 49.0554 36.7761 49.2364 36.5878 49.3668C36.3995 49.4971 36.1968 49.584 35.9795 49.6274C35.7623 49.6709 35.5668 49.6926 35.393 49.6926C35.2047 49.6926 35.0092 49.6781 34.8064 49.6492C34.6182 49.6057 34.4444 49.555 34.2851 49.4971C34.1113 49.4536 33.9375 49.3957 33.7637 49.3233ZM33.7637 42.6757V47.6723C34.0678 47.7736 34.3068 47.8171 34.4806 47.8026C34.6688 47.7736 34.8064 47.7157 34.8933 47.6288C34.9947 47.5274 35.0599 47.4188 35.0889 47.3029C35.1178 47.1726 35.1323 47.0567 35.1323 46.9554V43.7184C35.1323 43.226 35.0309 42.8857 34.8282 42.6974C34.6399 42.5091 34.2851 42.5019 33.7637 42.6757Z" fill="white"/>
<path d="M40.7434 47.5419H41.3517L41.8297 40.6553H44.2193L42.8724 48.1502L44.2193 55.8623H41.8297L41.1345 48.6499H40.7434V47.5419ZM38.571 40.6553H40.7434V55.8623H38.571V40.6553Z" fill="white"/>
<path d="M50.4282 55.8623H48.2558L48.1689 53.8637H47.0175L46.9306 55.8623H44.7582L45.8227 40.6553H49.4724L50.4282 55.8623ZM48.082 51.6478L47.7127 43.1102H47.5389L47.1261 51.6478H48.082Z" fill="white"/>
</svg>
