<svg width="17" height="18" viewBox="0 0 17 18" fill="none" xmlns="http://www.w3.org/2000/svg">
<path d="M0 17.0938L1.16695 12.8306C0.446859 11.5827 0.0684814 10.1681 0.0691732 8.71757C0.0712484 4.18258 3.76164 0.492188 8.29594 0.492188C10.4963 0.492879 12.5618 1.34993 14.1155 2.90495C15.6684 4.45996 16.5234 6.52686 16.5227 8.72518C16.5206 13.2609 12.8302 16.9513 8.29594 16.9513C6.91939 16.9506 5.56291 16.6054 4.36137 15.9496L0 17.0938ZM4.56335 14.4603C5.7227 15.1486 6.82947 15.5609 8.29317 15.5616C12.0617 15.5616 15.1316 12.4944 15.1337 8.72379C15.1351 4.94556 12.0797 1.88257 8.29871 1.88118C4.52738 1.88118 1.45955 4.94832 1.45817 8.71826C1.45748 10.2574 1.90849 11.4098 2.66593 12.6155L1.97489 15.1389L4.56335 14.4603ZM12.4401 10.6807C12.3889 10.5949 12.252 10.5437 12.0458 10.4407C11.8404 10.3376 10.8298 9.84025 10.6409 9.77177C10.4528 9.70329 10.3158 9.6687 10.1781 9.87484C10.0412 10.0803 9.64689 10.5437 9.52722 10.6807C9.40755 10.8177 9.28719 10.835 9.08175 10.7319C8.8763 10.6288 8.21362 10.4123 7.42851 9.71159C6.81771 9.1665 6.40474 8.49345 6.28507 8.28731C6.1654 8.08187 6.27262 7.9705 6.375 7.86812C6.46769 7.77612 6.58044 7.62809 6.68351 7.50773C6.78796 7.38875 6.82186 7.30298 6.89103 7.16532C6.95951 7.02836 6.92562 6.908 6.87374 6.80493C6.82186 6.70256 6.41097 5.69055 6.24011 5.27897C6.07271 4.87846 5.90324 4.93241 5.77734 4.92619L5.38306 4.91927C5.24609 4.91927 5.02336 4.97046 4.8352 5.17659C4.64705 5.38273 4.1158 5.87939 4.1158 6.8914C4.1158 7.9034 4.8525 8.88082 4.95487 9.01778C5.05794 9.15474 6.40405 11.2313 8.4661 12.1216C8.95654 12.3333 9.33976 12.4598 9.6379 12.5546C10.1304 12.7109 10.5787 12.6888 10.9328 12.6362C11.3278 12.5774 12.1489 12.1389 12.3204 11.6588C12.492 11.1781 12.492 10.7665 12.4401 10.6807Z" fill="black"/>
</svg>
